<svg width="65" height="50" viewBox="0 0 65 50" fill="none" xmlns="http://www.w3.org/2000/svg">
<path fill-rule="evenodd" clip-rule="evenodd" d="M8.1766 1.27157e-05C3.64673 1.27157e-05 0 3.71661 0 8.33327V41.6667C0 46.2834 3.64673 50 8.1766 50C12.7065 50 16.3534 46.2834 16.3534 41.6667V34.3272C16.3534 32.0188 18.1768 30.1605 20.4417 30.1605C22.7066 30.1605 24.53 32.0188 24.53 34.3272V38.2225V41.6667C24.53 46.2834 28.1767 50 32.7066 50C37.2365 50 40.8834 46.2834 40.8834 41.6667V14.7405C41.9532 20.4789 46.8789 24.7916 52.8299 24.7916H52.8371C59.5753 24.7916 65 19.263 65 12.3957C65 5.5284 59.5753 1.27157e-05 52.8371 1.27157e-05H52.8299C50.7243 1.27157e-05 48.7468 0.539804 47.0232 1.49174C47.0229 1.49189 47.0228 1.49202 47.0224 1.49216L40.0443 4.64399C38.7133 1.88831 35.9348 0 32.7066 0C28.1768 0 24.53 3.7166 24.53 8.33326V13.4979C24.53 15.8062 22.7067 17.6645 20.4417 17.6645C18.1768 17.6645 16.3534 15.8062 16.3534 13.4979V12.7553V8.33326C16.3534 3.7166 12.7065 1.27157e-05 8.1766 1.27157e-05Z" fill="black"/>
</svg>
